<?xml version="1.0" encoding="utf-8"?>
<!-- Generator: Adobe Illustrator 13.0.0, SVG Export Plug-In . SVG Version: 6.00 Build 14948)  -->
<!DOCTYPE svg PUBLIC "-//W3C//DTD SVG 1.1//EN" "http://www.w3.org/Graphics/SVG/1.1/DTD/svg11.dtd">
<svg version="1.1" xmlns="http://www.w3.org/2000/svg" xmlns:xlink="http://www.w3.org/1999/xlink" x="0px" y="0px" width="110px"
	 height="108px" viewBox="0 0 110 108" enable-background="new 0 0 110 108" xml:space="preserve">
<g id="Layer_3">
</g>
<g id="Layer_1">
</g>
<g id="Layer_2">
	<g display="none">
		<path display="inline" fill="none" d="M37.983,104.266h34.125c6.348-2.161,12.151-5.495,17.157-9.742H20.827
			C25.832,98.771,31.635,102.104,37.983,104.266z"/>
		<path display="inline" fill="none" d="M55.293,33.844h48.638c-1.237-2.975-2.738-5.812-4.473-8.483H55.293V33.844z"/>
		<path display="inline" fill="none" d="M55.293,8.194v8.434h37.072c-3.289-3.271-7.004-6.112-11.056-8.434H55.293z"/>
		<path display="inline" fill="none" d="M55.293,59.508H2.389c0.281,2.793,0.781,5.521,1.479,8.169h102.356
			c0.699-2.652,1.199-5.385,1.479-8.184h-52.41V59.508z"/>
		<path display="inline" fill="none" d="M55.293,50.761h52.566c-0.177-2.792-0.569-5.525-1.162-8.184H55.293V50.761z"/>
		<path display="inline" fill="none" d="M12.615,85.79h84.861c2.173-2.909,4.052-6.052,5.597-9.381H7.019
			C8.564,79.738,10.442,82.881,12.615,85.79z"/>
		<path display="inline" fill="#C81820" d="M81.31,8.194c-7.673-4.394-16.551-6.92-26.016-6.964v6.964H81.31z"/>
		<path display="inline" fill="#C81820" d="M55.293,25.36h44.165c-2.053-3.159-4.432-6.087-7.092-8.732H55.293V25.36z"/>
		<path display="inline" fill="#C81820" d="M55.293,42.577h51.404c-0.673-3.017-1.603-5.936-2.767-8.733H55.293V42.577z"/>
		<path display="inline" fill="#C81820" d="M55.293,59.493h52.41c0.176-1.757,0.267-3.538,0.267-5.341c0-1.14-0.04-2.27-0.111-3.392
			H55.293V59.493z"/>
		<path display="inline" fill="#C81820" d="M7.019,76.409h96.055c1.294-2.788,2.354-5.707,3.151-8.732H3.868
			C4.666,70.702,5.725,73.621,7.019,76.409z"/>
		<path display="inline" fill="#C81820" d="M20.827,94.523h68.438c3.054-2.592,5.812-5.521,8.211-8.733H12.615
			C15.015,89.003,17.773,91.932,20.827,94.523z"/>
		<path display="inline" fill="#C81820" d="M55.046,107.077c5.97,0,11.709-0.989,17.063-2.812H37.983
			C43.337,106.088,49.076,107.077,55.046,107.077z"/>
		<path display="inline" fill="#241F5D" d="M25.622,10.157c-0.334,0.224-0.665,0.451-0.993,0.683h0.755L25.622,10.157z"/>
		<path display="inline" fill="#241F5D" d="M3.511,42.058c-0.203,0.869-0.385,1.745-0.544,2.629l0.609-2.571L3.511,42.058z"/>
		<path display="inline" fill="#241F5D" d="M55.293,59.493v-8.732v-8.184v-8.733V25.36v-8.732V8.194V1.23
			c-0.083,0-0.165-0.003-0.248-0.003c-6.481,0-12.69,1.167-18.429,3.3h0.393l-1.896,1.733l0.699,2.633l-2.283-1.473l-2.133,1.473
			l0.563-2.377c-1.787,0.868-3.517,1.834-5.184,2.89l0.554,1.434h2.495l-1.896,1.733l0.698,2.633l-2.283-1.473l-2.133,1.473
			l0.624-2.633l-1.176-1.034c-1.396,1.03-2.74,2.126-4.026,3.285l0.611,1.579h2.495l-1.896,1.734l0.698,2.632l-2.283-1.472
			l-2.133,1.472l0.624-2.632l-0.808-0.711c-1.427,1.481-2.769,3.046-4.017,4.685l0.234,0.604h2.495l-1.896,1.734l0.699,2.632
			l-2.283-1.472l-2.133,1.472l0.298-1.26c-1.207,1.901-2.294,3.885-3.255,5.94l0.288,1.083L6.76,32.454
			c-1.144,2.542-2.09,5.191-2.826,7.927h0.19l0.923-2.645l1.023,2.645h2.495L6.67,42.115l0.699,2.632l-2.283-1.472l-2.13,1.47
			c-0.434,2.418-0.699,4.893-0.793,7.412h1.963l0.923-2.645l1.023,2.645h2.495L6.67,53.892l0.699,2.633l-2.283-1.473l-2.133,1.473
			l0.624-2.633l-1.432-1.26c-0.014,0.506-0.023,1.012-0.023,1.521c0,1.808,0.091,3.594,0.268,5.355h52.904V59.493z M14.455,51.061
			l-2.283-1.473l-2.133,1.473l0.624-2.633l-1.971-1.734h2.52l0.923-2.645l1.023,2.645h2.495l-1.896,1.734L14.455,51.061z
			 M13.756,36.526l0.699,2.632l-2.283-1.472l-2.133,1.472l0.624-2.632l-1.971-1.734h2.52l0.923-2.645l1.023,2.645h2.495
			L13.756,36.526z M21.54,56.524l-2.283-1.473l-2.133,1.473l0.624-2.633l-1.972-1.734h2.521l0.923-2.645l1.023,2.645h2.495
			l-1.896,1.734L21.54,56.524z M20.842,42.115l0.698,2.632l-2.283-1.472l-2.133,1.472l0.624-2.632l-1.972-1.734h2.521l0.923-2.645
			l1.023,2.645h2.495L20.842,42.115z M20.842,30.214l0.698,2.632l-2.283-1.472l-2.133,1.472l0.624-2.632l-1.972-1.734h2.521
			l0.923-2.645l1.023,2.645h2.495L20.842,30.214z M28.626,51.061l-2.283-1.473l-2.133,1.473l0.624-2.633l-1.971-1.734h2.521
			l0.923-2.645l1.023,2.645h2.495l-1.896,1.734L28.626,51.061z M27.928,36.526l0.698,2.632l-2.283-1.472l-2.133,1.472l0.624-2.632
			l-1.971-1.734h2.521l0.923-2.645l1.023,2.645h2.495L27.928,36.526z M27.928,24.45l0.698,2.632l-2.283-1.472l-2.133,1.472
			l0.624-2.632l-1.971-1.734h2.521l0.923-2.645l1.023,2.645h2.495L27.928,24.45z M35.813,56.524l-2.283-1.473l-2.133,1.473
			l0.624-2.633l-1.971-1.734h2.52l0.923-2.645l1.023,2.645h2.495l-1.896,1.734L35.813,56.524z M35.114,42.115l0.699,2.632
			l-2.283-1.472l-2.133,1.472l0.624-2.632l-1.971-1.734h2.52l0.923-2.645l1.023,2.645h2.495L35.114,42.115z M35.114,30.214
			l0.699,2.632l-2.283-1.472l-2.133,1.472l0.624-2.632l-1.971-1.734h2.52l0.923-2.645l1.023,2.645h2.495L35.114,30.214z
			 M35.114,18.138l0.699,2.632l-2.283-1.472l-2.133,1.472l0.624-2.632l-1.971-1.734h2.52l0.923-2.645l1.023,2.645h2.495
			L35.114,18.138z M42.898,51.061l-2.283-1.473l-2.133,1.473l0.624-2.633l-1.971-1.734h2.52l0.923-2.645l1.023,2.645h2.495
			L42.2,48.428L42.898,51.061z M42.2,36.526l0.698,2.632l-2.283-1.472l-2.133,1.472l0.624-2.632l-1.971-1.734h2.52l0.923-2.645
			l1.023,2.645h2.495L42.2,36.526z M42.2,24.45l0.698,2.632l-2.283-1.472l-2.133,1.472l0.624-2.632l-1.971-1.734h2.52l0.923-2.645
			l1.023,2.645h2.495L42.2,24.45z M42.2,12.573l0.698,2.633l-2.283-1.473l-2.133,1.473l0.624-2.633l-1.971-1.733h2.52l0.923-2.646
			l1.023,2.646h2.495L42.2,12.573z M50.383,56.524l-2.283-1.473l-2.133,1.473l0.624-2.633l-1.971-1.734h2.521l0.923-2.645
			l1.023,2.645h2.495l-1.896,1.734L50.383,56.524z M49.685,42.115l0.698,2.632l-2.283-1.472l-2.133,1.472l0.624-2.632l-1.971-1.734
			h2.521l0.923-2.645l1.023,2.645h2.495L49.685,42.115z M49.685,30.214l0.698,2.632l-2.283-1.472l-2.133,1.472l0.624-2.632
			l-1.971-1.734h2.521l0.923-2.645l1.023,2.645h2.495L49.685,30.214z M49.685,18.138l0.698,2.632l-2.283-1.472l-2.133,1.472
			l0.624-2.632l-1.971-1.734h2.521l0.923-2.645l1.023,2.645h2.495L49.685,18.138z M49.685,6.261l0.698,2.633l-2.283-1.473
			l-2.133,1.473l0.624-2.633L44.62,4.527h2.521l0.923-2.646l1.023,2.646h2.495L49.685,6.261z"/>
		<path display="inline" fill="#241F5D" d="M18.473,15.897c-0.174,0.167-0.346,0.337-0.518,0.506h0.341L18.473,15.897z"/>
		<path display="inline" fill="#FFFFFF" d="M33.529,7.421l2.283,1.473l-0.699-2.633l1.896-1.733h-0.393
			c-1.59,0.591-3.145,1.255-4.658,1.989l-0.563,2.377L33.529,7.421z"/>
		<polygon display="inline" fill="#FFFFFF" points="48.063,1.882 47.14,4.527 44.62,4.527 46.591,6.261 45.967,8.894 48.101,7.421 
			50.383,8.894 49.685,6.261 51.581,4.527 49.086,4.527 		"/>
		<path display="inline" fill="#FFFFFF" d="M24.21,15.206l2.133-1.473l2.283,1.473l-0.698-2.633l1.896-1.733h-2.495l-0.554-1.434
			c-0.388,0.245-0.772,0.495-1.153,0.751l-0.238,0.683h-0.755c-0.326,0.229-0.649,0.463-0.97,0.699l1.176,1.034L24.21,15.206z"/>
		<polygon display="inline" fill="#FFFFFF" points="40.578,8.194 39.655,10.84 37.135,10.84 39.106,12.573 38.482,15.206 
			40.615,13.733 42.898,15.206 42.2,12.573 44.096,10.84 41.601,10.84 		"/>
		<path display="inline" fill="#FFFFFF" d="M17.124,20.77l2.133-1.472l2.283,1.472l-0.698-2.632l1.896-1.734h-2.495l-0.611-1.579
			c-0.391,0.353-0.778,0.71-1.159,1.073l-0.176,0.506h-0.341c-0.343,0.337-0.682,0.678-1.015,1.023l0.808,0.711L17.124,20.77z"/>
		<polygon display="inline" fill="#FFFFFF" points="33.492,13.759 32.569,16.403 30.049,16.403 32.02,18.138 31.396,20.77 
			33.529,19.298 35.813,20.77 35.114,18.138 37.01,16.403 34.515,16.403 		"/>
		<polygon display="inline" fill="#FFFFFF" points="48.063,13.759 47.14,16.403 44.62,16.403 46.591,18.138 45.967,20.77 
			48.101,19.298 50.383,20.77 49.685,18.138 51.581,16.403 49.086,16.403 		"/>
		<path display="inline" fill="#FFFFFF" d="M12.171,25.61l2.283,1.472l-0.699-2.632l1.896-1.734h-2.495l-0.234-0.604
			c-0.913,1.198-1.777,2.436-2.587,3.711l-0.298,1.26L12.171,25.61z"/>
		<polygon display="inline" fill="#FFFFFF" points="26.306,20.071 25.383,22.716 22.863,22.716 24.834,24.45 24.21,27.082 
			26.343,25.61 28.626,27.082 27.928,24.45 29.824,22.716 27.329,22.716 		"/>
		<polygon display="inline" fill="#FFFFFF" points="40.578,20.071 39.655,22.716 37.135,22.716 39.106,24.45 38.482,27.082 
			40.615,25.61 42.898,27.082 42.2,24.45 44.096,22.716 41.601,22.716 		"/>
		<path display="inline" fill="#FFFFFF" d="M7.081,31.763c-0.108,0.229-0.216,0.459-0.321,0.691l0.608,0.392L7.081,31.763z"/>
		<polygon display="inline" fill="#FFFFFF" points="19.22,25.835 18.297,28.479 15.776,28.479 17.748,30.214 17.124,32.846 
			19.257,31.374 21.54,32.846 20.842,30.214 22.738,28.479 20.243,28.479 		"/>
		<polygon display="inline" fill="#FFFFFF" points="33.492,25.835 32.569,28.479 30.049,28.479 32.02,30.214 31.396,32.846 
			33.529,31.374 35.813,32.846 35.114,30.214 37.01,28.479 34.515,28.479 		"/>
		<polygon display="inline" fill="#FFFFFF" points="48.063,25.835 47.14,28.479 44.62,28.479 46.591,30.214 45.967,32.846 
			48.101,31.374 50.383,32.846 49.685,30.214 51.581,28.479 49.086,28.479 		"/>
		<polygon display="inline" fill="#FFFFFF" points="12.134,32.147 11.211,34.792 8.691,34.792 10.662,36.526 10.038,39.158 
			12.171,37.687 14.455,39.158 13.756,36.526 15.652,34.792 13.157,34.792 		"/>
		<polygon display="inline" fill="#FFFFFF" points="26.306,32.147 25.383,34.792 22.863,34.792 24.834,36.526 24.21,39.158 
			26.343,37.687 28.626,39.158 27.928,36.526 29.824,34.792 27.329,34.792 		"/>
		<polygon display="inline" fill="#FFFFFF" points="40.578,32.147 39.655,34.792 37.135,34.792 39.106,36.526 38.482,39.158 
			40.615,37.687 42.898,39.158 42.2,36.526 44.096,34.792 41.601,34.792 		"/>
		<path display="inline" fill="#FFFFFF" d="M7.369,44.747L6.67,42.115l1.896-1.734H6.071l-1.023-2.645l-0.923,2.645h-0.19
			c-0.149,0.556-0.292,1.114-0.424,1.677l0.065,0.058l-0.609,2.571c-0.003,0.02-0.008,0.039-0.011,0.059l2.13-1.47L7.369,44.747z"/>
		<polygon display="inline" fill="#FFFFFF" points="19.22,37.736 18.297,40.381 15.776,40.381 17.748,42.115 17.124,44.747 
			19.257,43.275 21.54,44.747 20.842,42.115 22.738,40.381 20.243,40.381 		"/>
		<polygon display="inline" fill="#FFFFFF" points="33.492,37.736 32.569,40.381 30.049,40.381 32.02,42.115 31.396,44.747 
			33.529,43.275 35.813,44.747 35.114,42.115 37.01,40.381 34.515,40.381 		"/>
		<polygon display="inline" fill="#FFFFFF" points="48.063,37.736 47.14,40.381 44.62,40.381 46.591,42.115 45.967,44.747 
			48.101,43.275 50.383,44.747 49.685,42.115 51.581,40.381 49.086,40.381 		"/>
		<path display="inline" fill="#FFFFFF" d="M2.952,56.524l2.133-1.473l2.283,1.473L6.67,53.892l1.896-1.734H6.071l-1.023-2.645
			l-0.923,2.645H2.162c-0.006,0.158-0.013,0.316-0.018,0.475l1.432,1.26L2.952,56.524z"/>
		<polygon display="inline" fill="#FFFFFF" points="20.243,52.157 19.22,49.513 18.297,52.157 15.776,52.157 17.748,53.892 
			17.124,56.524 19.257,55.052 21.54,56.524 20.842,53.892 22.738,52.157 		"/>
		<polygon display="inline" fill="#FFFFFF" points="34.515,52.157 33.492,49.513 32.569,52.157 30.049,52.157 32.02,53.892 
			31.396,56.524 33.529,55.052 35.813,56.524 35.114,53.892 37.01,52.157 		"/>
		<polygon display="inline" fill="#FFFFFF" points="49.086,52.157 48.063,49.513 47.14,52.157 44.62,52.157 46.591,53.892 
			45.967,56.524 48.101,55.052 50.383,56.524 49.685,53.892 51.581,52.157 		"/>
		<polygon display="inline" fill="#FFFFFF" points="13.157,46.693 12.134,44.049 11.211,46.693 8.691,46.693 10.662,48.428 
			10.038,51.061 12.171,49.588 14.455,51.061 13.756,48.428 15.652,46.693 		"/>
		<polygon display="inline" fill="#FFFFFF" points="27.329,46.693 26.306,44.049 25.383,46.693 22.863,46.693 24.834,48.428 
			24.21,51.061 26.343,49.588 28.626,51.061 27.928,48.428 29.824,46.693 		"/>
		<polygon display="inline" fill="#FFFFFF" points="41.601,46.693 40.578,44.049 39.655,46.693 37.135,46.693 39.106,48.428 
			38.482,51.061 40.615,49.588 42.898,51.061 42.2,48.428 44.096,46.693 		"/>
	</g>
	<g display="none">
		<path display="inline" fill="#0053A4" d="M55.046,1.228c-29.229,0-52.925,23.695-52.925,52.925s23.695,52.925,52.925,52.925
			s52.925-23.695,52.925-52.925S84.275,1.228,55.046,1.228z M11.707,52.207h4.783l1.521-4.458l1.387,4.458h4.769l-3.916,2.722
			l1.292,4.227l-3.667-2.597l-3.754,2.569l1.438-4.209L11.707,52.207z M26.763,77.916l-3.667-2.596l-3.754,2.569l1.438-4.209
			l-3.853-2.712h4.782l1.521-4.459l1.387,4.459h4.769l-3.916,2.723L26.763,77.916z M25.635,35.678l1.292,4.226l-3.667-2.596
			l-3.754,2.569l1.438-4.209l-3.853-2.713h4.783l1.521-4.457l1.387,4.457h4.769L25.635,35.678z M40.142,91.947l-3.667-2.597
			L32.72,91.92l1.438-4.21l-3.852-2.711h4.782l1.521-4.458l1.387,4.458h4.769l-3.916,2.722L40.142,91.947z M39.013,22.137
			l1.292,4.226l-3.667-2.596l-3.754,2.569l1.438-4.209l-3.853-2.713h4.782l1.521-4.457l1.388,4.457h4.769L39.013,22.137z
			 M59.393,97.005l-3.667-2.597l-3.754,2.569l1.438-4.209l-3.853-2.713h4.782l1.521-4.457l1.388,4.457h4.769l-3.915,2.723
			L59.393,97.005z M58.102,17.188l1.292,4.226l-3.667-2.596l-3.754,2.569l1.438-4.21l-3.853-2.712h4.782l1.521-4.458l1.388,4.458
			h4.769L58.102,17.188z M72.775,19.414l1.521-4.457l1.387,4.457h4.771l-3.917,2.723l1.291,4.226l-3.667-2.596l-3.753,2.569
			l1.438-4.209l-3.853-2.713H72.775z M78.155,91.947l-3.667-2.597l-3.754,2.569l1.438-4.21l-3.853-2.711h4.782l1.522-4.458
			l1.387,4.458h4.769l-3.917,2.722L78.155,91.947z M90.404,73.691l1.291,4.225l-3.667-2.596l-3.752,2.569l1.436-4.209l-3.851-2.712
			h4.782l1.521-4.459l1.389,4.459h4.767L90.404,73.691z M99.376,52.207l-3.917,2.722l1.292,4.227l-3.666-2.597l-3.752,2.569
			l1.435-4.209l-3.85-2.712h4.78l1.521-4.458l1.391,4.458H99.376z M90.24,35.678l1.293,4.226l-3.668-2.596l-3.752,2.569l1.435-4.209
			l-3.852-2.713h4.782l1.521-4.457l1.391,4.457h4.767L90.24,35.678z"/>
		<polygon display="inline" fill="#FFF100" points="55.86,10.008 54.339,14.466 49.557,14.466 53.41,17.178 51.972,21.388 
			55.726,18.818 59.393,21.414 58.102,17.188 62.017,14.466 57.248,14.466 		"/>
		<polygon display="inline" fill="#FFF100" points="57.248,90.056 55.86,85.599 54.339,90.056 49.557,90.056 53.41,92.769 
			51.972,96.978 55.726,94.408 59.393,97.005 58.102,92.778 62.017,90.056 		"/>
		<polygon display="inline" fill="#FFF100" points="17.876,56.559 21.543,59.155 20.251,54.929 24.167,52.207 19.398,52.207 
			18.011,47.749 16.49,52.207 11.707,52.207 15.56,54.919 14.122,59.128 		"/>
		<polygon display="inline" fill="#FFF100" points="23.395,28.498 21.874,32.955 17.091,32.955 20.943,35.668 19.506,39.877 
			23.26,37.308 26.927,39.903 25.635,35.678 29.55,32.955 24.782,32.955 		"/>
		<polygon display="inline" fill="#FFF100" points="36.772,14.957 35.251,19.414 30.469,19.414 34.322,22.127 32.884,26.336 
			36.638,23.767 40.305,26.362 39.013,22.137 42.929,19.414 38.16,19.414 		"/>
		<polygon display="inline" fill="#FFF100" points="70.407,26.336 74.161,23.767 77.828,26.362 76.537,22.137 80.454,19.414 
			75.683,19.414 74.296,14.957 72.775,19.414 67.992,19.414 71.845,22.127 		"/>
		<polygon display="inline" fill="#FFF100" points="87.998,28.498 86.478,32.955 81.696,32.955 85.547,35.668 84.113,39.877 
			87.865,37.308 91.533,39.903 90.24,35.678 94.156,32.955 89.389,32.955 		"/>
		<polygon display="inline" fill="#FFF100" points="24.619,70.969 23.231,66.51 21.71,70.969 16.928,70.969 20.781,73.681 
			19.343,77.89 23.097,75.32 26.763,77.916 25.472,73.691 29.387,70.969 		"/>
		<polygon display="inline" fill="#FFF100" points="37.997,84.999 36.609,80.541 35.088,84.999 30.306,84.999 34.158,87.71 
			32.72,91.92 36.475,89.351 40.142,91.947 38.85,87.721 42.766,84.999 		"/>
		<polygon display="inline" fill="#FFF100" points="76.01,84.999 74.623,80.541 73.101,84.999 68.319,84.999 72.172,87.71 
			70.734,91.92 74.488,89.351 78.155,91.947 76.862,87.721 80.779,84.999 		"/>
		<polygon display="inline" fill="#FFF100" points="88.163,66.51 86.642,70.969 81.86,70.969 85.711,73.681 84.275,77.89 
			88.027,75.32 91.695,77.916 90.404,73.691 94.319,70.969 89.552,70.969 		"/>
		<polygon display="inline" fill="#FFF100" points="91.698,52.207 86.918,52.207 90.768,54.919 89.333,59.128 93.086,56.559 
			96.752,59.155 95.46,54.929 99.376,52.207 94.61,52.207 93.219,47.749 		"/>
	</g>
	<g>
		<path fill="none" d="M46.889,106.451c2.659,0.411,5.383,0.626,8.157,0.626c2.774,0,5.498-0.215,8.157-0.626H46.889z"/>
		<path fill="#FFFFFF" d="M44.64,2.253c-2.405,0.479-4.75,1.123-7.026,1.917v29.015L13.636,21.195
			c-2.199,2.76-4.13,5.742-5.749,8.91l12.159,6.08H5.251c-0.821,2.273-1.49,4.62-1.995,7.026H44.64V2.253z"/>
		<path fill="#FFFFFF" d="M65.72,106c2.406-0.492,4.751-1.151,7.026-1.959V74.319l24.236,12.118c2.15-2.789,4.028-5.798,5.595-8.987
			l-12.264-6.132h14.81c0.78-2.276,1.407-4.622,1.874-7.026H65.72V106z"/>
		<path fill="#FFFFFF" d="M106.836,43.212c-0.963-4.579-2.516-8.939-4.578-12.999l-11.945,5.973H74.601l24.052-12.026
			c-0.675-0.98-1.382-1.938-2.12-2.868L72.746,33.185V4.264c-2.274-0.807-4.62-1.467-7.026-1.959v40.907H106.836z"/>
		<path fill="#FFFFFF" d="M3.095,64.292c0.906,4.67,2.426,9.121,4.473,13.265l12.478-6.238h15.712l-24.661,12.33
			c0.663,0.986,1.36,1.947,2.086,2.886l24.429-12.215v29.815c2.276,0.794,4.621,1.438,7.026,1.917v-41.76H3.095z"/>
		<path fill="#D11D23" d="M65.72,106V64.292h41.277c0.637-3.282,0.974-6.671,0.974-10.14c0-3.751-0.393-7.41-1.135-10.94H65.72
			V2.305c-3.448-0.706-7.018-1.077-10.674-1.077c-3.562,0-7.042,0.354-10.406,1.025v40.959H3.256
			c-0.742,3.53-1.135,7.189-1.135,10.94c0,3.469,0.337,6.857,0.974,10.14H44.64v41.76c0.745,0.148,1.494,0.282,2.249,0.399h16.314
			C64.048,106.32,64.888,106.171,65.72,106z"/>
		<path fill="#D11D23" d="M102.577,77.45c0.971-1.979,1.824-4.024,2.546-6.132h-14.81L102.577,77.45z"/>
		<path fill="#D11D23" d="M20.046,71.318L7.568,77.557c1.044,2.114,2.223,4.149,3.529,6.092l24.661-12.33H20.046z"/>
		<path fill="#D11D23" d="M7.887,30.105c-1,1.959-1.881,3.989-2.636,6.08h14.795L7.887,30.105z"/>
		<path fill="#D11D23" d="M90.313,36.186l11.945-5.973c-1.069-2.104-2.275-4.124-3.605-6.054L74.601,36.186H90.313z"/>
		<path fill="#00305C" d="M37.613,4.17c-9.527,3.322-17.813,9.29-23.977,17.025l23.977,11.989V4.17z"/>
		<path fill="#00305C" d="M13.184,86.534c6.208,8.015,14.667,14.196,24.429,17.601V74.319L13.184,86.534z"/>
		<path fill="#00305C" d="M96.533,21.291C90.418,13.582,82.2,7.618,72.746,4.264v28.921L96.533,21.291z"/>
		<path fill="#00305C" d="M72.746,104.041c9.688-3.438,18.078-9.616,24.236-17.604L72.746,74.319V104.041z"/>
	</g>
</g>
</svg>
