<?xml version="1.0" encoding="utf-8"?>
<!-- Generator: Adobe Illustrator 13.0.0, SVG Export Plug-In . SVG Version: 6.00 Build 14948)  -->
<!DOCTYPE svg PUBLIC "-//W3C//DTD SVG 1.1//EN" "http://www.w3.org/Graphics/SVG/1.1/DTD/svg11.dtd">
<svg version="1.1" xmlns="http://www.w3.org/2000/svg" xmlns:xlink="http://www.w3.org/1999/xlink" x="0px" y="0px"
	 width="105.85px" height="105.85px" viewBox="0 0 105.85 105.85" enable-background="new 0 0 105.85 105.85" xml:space="preserve">
<g id="Layer_3">
</g>
<g id="Layer_1">
</g>
<g id="Layer_2">
	<g>
		<path fill="none" d="M35.862,103.038h34.125c6.348-2.161,12.151-5.495,17.157-9.742H18.706
			C23.711,97.543,29.514,100.877,35.862,103.038z"/>
		<path fill="none" d="M53.172,32.616h48.638c-1.237-2.975-2.738-5.812-4.473-8.483H53.172V32.616z"/>
		<path fill="none" d="M53.172,6.967V15.4h37.072c-3.289-3.271-7.004-6.112-11.056-8.434H53.172z"/>
		<path fill="none" d="M53.172,58.28H0.268c0.281,2.793,0.781,5.521,1.479,8.169h102.356c0.699-2.652,1.199-5.385,1.479-8.184
			h-52.41V58.28z"/>
		<path fill="none" d="M53.172,49.533h52.566c-0.177-2.792-0.569-5.525-1.162-8.184H53.172V49.533z"/>
		<path fill="none" d="M10.494,84.563h84.861c2.173-2.909,4.052-6.052,5.597-9.381H4.897C6.443,78.511,8.321,81.653,10.494,84.563z"
			/>
		<path fill="#C81820" d="M79.188,6.967c-7.673-4.394-16.551-6.92-26.016-6.964v6.964H79.188z"/>
		<path fill="#C81820" d="M53.172,24.133h44.165c-2.053-3.159-4.432-6.087-7.092-8.732H53.172V24.133z"/>
		<path fill="#C81820" d="M53.172,41.35h51.404c-0.673-3.017-1.603-5.936-2.767-8.733H53.172V41.35z"/>
		<path fill="#C81820" d="M53.172,58.266h52.41c0.176-1.757,0.267-3.538,0.267-5.341c0-1.14-0.04-2.27-0.111-3.392H53.172V58.266z"
			/>
		<path fill="#C81820" d="M4.897,75.182h96.055c1.294-2.788,2.354-5.707,3.151-8.732H1.747C2.544,69.475,3.604,72.394,4.897,75.182z
			"/>
		<path fill="#C81820" d="M18.706,93.296h68.438c3.054-2.592,5.812-5.521,8.211-8.733H10.494
			C12.894,87.775,15.652,90.704,18.706,93.296z"/>
		<path fill="#C81820" d="M52.925,105.85c5.97,0,11.709-0.989,17.063-2.812H35.862C41.216,104.86,46.955,105.85,52.925,105.85z"/>
		<path fill="#241F5D" d="M23.5,8.93c-0.334,0.224-0.665,0.451-0.993,0.683h0.755L23.5,8.93z"/>
		<path fill="#241F5D" d="M1.39,40.83c-0.203,0.869-0.385,1.745-0.544,2.629l0.609-2.571L1.39,40.83z"/>
		<path fill="#241F5D" d="M53.172,58.266v-8.732V41.35v-8.733v-8.483V15.4V6.967V0.003C53.09,0.003,53.007,0,52.925,0
			c-6.481,0-12.69,1.167-18.429,3.3h0.393l-1.896,1.733l0.699,2.633l-2.283-1.473l-2.133,1.473l0.563-2.377
			c-1.787,0.868-3.517,1.834-5.184,2.89l0.554,1.434h2.495l-1.896,1.733l0.698,2.633l-2.283-1.473l-2.133,1.473l0.624-2.633
			l-1.176-1.034c-1.396,1.03-2.74,2.126-4.026,3.285l0.611,1.579h2.495l-1.896,1.734l0.698,2.632l-2.283-1.472l-2.133,1.472
			l0.624-2.632l-0.808-0.711c-1.427,1.481-2.769,3.046-4.017,4.685l0.234,0.604h2.495l-1.896,1.734l0.699,2.632l-2.283-1.472
			l-2.133,1.472l0.298-1.26c-1.207,1.901-2.294,3.885-3.255,5.94l0.288,1.083l-0.608-0.392c-1.144,2.542-2.09,5.191-2.826,7.927
			h0.19l0.923-2.645l1.023,2.645h2.495l-1.896,1.734l0.699,2.632l-2.283-1.472l-2.13,1.47C0.4,45.936,0.135,48.41,0.041,50.93h1.963
			l0.923-2.645L3.95,50.93h2.495l-1.896,1.734l0.699,2.633l-2.283-1.473l-2.133,1.473l0.624-2.633l-1.432-1.26
			C0.009,51.91,0,52.416,0,52.925c0,1.808,0.091,3.594,0.268,5.355h52.904V58.266z M12.333,49.833L10.05,48.36l-2.133,1.473
			L8.541,47.2L6.57,45.466h2.52l0.923-2.645l1.023,2.645h2.495L11.635,47.2L12.333,49.833z M11.635,35.299l0.699,2.632l-2.283-1.472
			l-2.133,1.472l0.624-2.632L6.57,33.564h2.52l0.923-2.645l1.023,2.645h2.495L11.635,35.299z M19.419,55.297l-2.283-1.473
			l-2.133,1.473l0.624-2.633l-1.972-1.734h2.521l0.923-2.645l1.023,2.645h2.495l-1.896,1.734L19.419,55.297z M18.721,40.888
			l0.698,2.632l-2.283-1.472l-2.133,1.472l0.624-2.632l-1.972-1.734h2.521l0.923-2.645l1.023,2.645h2.495L18.721,40.888z
			 M18.721,28.986l0.698,2.632l-2.283-1.472l-2.133,1.472l0.624-2.632l-1.972-1.734h2.521l0.923-2.645l1.023,2.645h2.495
			L18.721,28.986z M26.505,49.833l-2.283-1.473l-2.133,1.473l0.624-2.633l-1.971-1.734h2.521l0.923-2.645l1.023,2.645h2.495
			L25.807,47.2L26.505,49.833z M25.807,35.299l0.698,2.632l-2.283-1.472l-2.133,1.472l0.624-2.632l-1.971-1.734h2.521l0.923-2.645
			l1.023,2.645h2.495L25.807,35.299z M25.807,23.223l0.698,2.632l-2.283-1.472l-2.133,1.472l0.624-2.632l-1.971-1.734h2.521
			l0.923-2.645l1.023,2.645h2.495L25.807,23.223z M33.691,55.297l-2.283-1.473l-2.133,1.473l0.624-2.633l-1.971-1.734h2.52
			l0.923-2.645l1.023,2.645h2.495l-1.896,1.734L33.691,55.297z M32.993,40.888l0.699,2.632l-2.283-1.472l-2.133,1.472l0.624-2.632
			l-1.971-1.734h2.52l0.923-2.645l1.023,2.645h2.495L32.993,40.888z M32.993,28.986l0.699,2.632l-2.283-1.472l-2.133,1.472
			l0.624-2.632l-1.971-1.734h2.52l0.923-2.645l1.023,2.645h2.495L32.993,28.986z M32.993,16.91l0.699,2.632l-2.283-1.472
			l-2.133,1.472l0.624-2.632l-1.971-1.734h2.52l0.923-2.645l1.023,2.645h2.495L32.993,16.91z M40.777,49.833l-2.283-1.473
			l-2.133,1.473l0.624-2.633l-1.971-1.734h2.52l0.923-2.645l1.023,2.645h2.495L40.079,47.2L40.777,49.833z M40.079,35.299
			l0.698,2.632l-2.283-1.472l-2.133,1.472l0.624-2.632l-1.971-1.734h2.52l0.923-2.645l1.023,2.645h2.495L40.079,35.299z
			 M40.079,23.223l0.698,2.632l-2.283-1.472l-2.133,1.472l0.624-2.632l-1.971-1.734h2.52l0.923-2.645l1.023,2.645h2.495
			L40.079,23.223z M40.079,11.346l0.698,2.633l-2.283-1.473l-2.133,1.473l0.624-2.633l-1.971-1.733h2.52l0.923-2.646l1.023,2.646
			h2.495L40.079,11.346z M48.262,55.297l-2.283-1.473l-2.133,1.473l0.624-2.633l-1.971-1.734h2.521l0.923-2.645l1.023,2.645h2.495
			l-1.896,1.734L48.262,55.297z M47.564,40.888l0.698,2.632l-2.283-1.472l-2.133,1.472l0.624-2.632l-1.971-1.734h2.521l0.923-2.645
			l1.023,2.645h2.495L47.564,40.888z M47.564,28.986l0.698,2.632l-2.283-1.472l-2.133,1.472l0.624-2.632l-1.971-1.734h2.521
			l0.923-2.645l1.023,2.645h2.495L47.564,28.986z M47.564,16.91l0.698,2.632l-2.283-1.472l-2.133,1.472l0.624-2.632l-1.971-1.734
			h2.521l0.923-2.645l1.023,2.645h2.495L47.564,16.91z M47.564,5.033l0.698,2.633l-2.283-1.473l-2.133,1.473l0.624-2.633L42.499,3.3
			h2.521l0.923-2.646L46.965,3.3h2.495L47.564,5.033z"/>
		<path fill="#241F5D" d="M16.352,14.67c-0.174,0.167-0.346,0.337-0.518,0.506h0.341L16.352,14.67z"/>
		<path fill="#FFFFFF" d="M31.408,6.193l2.283,1.473l-0.699-2.633L34.889,3.3h-0.393c-1.59,0.591-3.145,1.255-4.658,1.989
			l-0.563,2.377L31.408,6.193z"/>
		<polygon fill="#FFFFFF" points="45.942,0.654 45.019,3.3 42.499,3.3 44.47,5.033 43.846,7.666 45.979,6.193 48.262,7.666 
			47.564,5.033 49.46,3.3 46.965,3.3 		"/>
		<path fill="#FFFFFF" d="M22.089,13.979l2.133-1.473l2.283,1.473l-0.698-2.633l1.896-1.733h-2.495l-0.554-1.434
			C24.266,8.424,23.881,8.674,23.5,8.93l-0.238,0.683h-0.755c-0.326,0.229-0.649,0.463-0.97,0.699l1.176,1.034L22.089,13.979z"/>
		<polygon fill="#FFFFFF" points="38.457,6.967 37.534,9.612 35.014,9.612 36.985,11.346 36.361,13.979 38.494,12.506 
			40.777,13.979 40.079,11.346 41.975,9.612 39.48,9.612 		"/>
		<path fill="#FFFFFF" d="M15.003,19.542l2.133-1.472l2.283,1.472l-0.698-2.632l1.896-1.734h-2.495l-0.611-1.579
			c-0.391,0.353-0.778,0.71-1.159,1.073l-0.176,0.506h-0.341c-0.343,0.337-0.682,0.678-1.015,1.023l0.808,0.711L15.003,19.542z"/>
		<polygon fill="#FFFFFF" points="31.371,12.531 30.448,15.176 27.928,15.176 29.898,16.91 29.275,19.542 31.408,18.07 
			33.691,19.542 32.993,16.91 34.889,15.176 32.394,15.176 		"/>
		<polygon fill="#FFFFFF" points="45.942,12.531 45.019,15.176 42.499,15.176 44.47,16.91 43.846,19.542 45.979,18.07 
			48.262,19.542 47.564,16.91 49.46,15.176 46.965,15.176 		"/>
		<path fill="#FFFFFF" d="M10.05,24.383l2.283,1.472l-0.699-2.632l1.896-1.734h-2.495l-0.234-0.604
			c-0.913,1.198-1.777,2.436-2.587,3.711l-0.298,1.26L10.05,24.383z"/>
		<polygon fill="#FFFFFF" points="24.185,18.844 23.262,21.488 20.742,21.488 22.713,23.223 22.089,25.854 24.222,24.383 
			26.505,25.854 25.807,23.223 27.703,21.488 25.208,21.488 		"/>
		<polygon fill="#FFFFFF" points="38.457,18.844 37.534,21.488 35.014,21.488 36.985,23.223 36.361,25.854 38.494,24.383 
			40.777,25.854 40.079,23.223 41.975,21.488 39.48,21.488 		"/>
		<path fill="#FFFFFF" d="M4.96,30.535c-0.108,0.229-0.216,0.459-0.321,0.691l0.608,0.392L4.96,30.535z"/>
		<polygon fill="#FFFFFF" points="17.099,24.607 16.176,27.252 13.655,27.252 15.627,28.986 15.003,31.618 17.136,30.146 
			19.419,31.618 18.721,28.986 20.617,27.252 18.122,27.252 		"/>
		<polygon fill="#FFFFFF" points="31.371,24.607 30.448,27.252 27.928,27.252 29.898,28.986 29.275,31.618 31.408,30.146 
			33.691,31.618 32.993,28.986 34.889,27.252 32.394,27.252 		"/>
		<polygon fill="#FFFFFF" points="45.942,24.607 45.019,27.252 42.499,27.252 44.47,28.986 43.846,31.618 45.979,30.146 
			48.262,31.618 47.564,28.986 49.46,27.252 46.965,27.252 		"/>
		<polygon fill="#FFFFFF" points="10.013,30.92 9.09,33.564 6.57,33.564 8.541,35.299 7.917,37.931 10.05,36.459 12.333,37.931 
			11.635,35.299 13.531,33.564 11.036,33.564 		"/>
		<polygon fill="#FFFFFF" points="24.185,30.92 23.262,33.564 20.742,33.564 22.713,35.299 22.089,37.931 24.222,36.459 
			26.505,37.931 25.807,35.299 27.703,33.564 25.208,33.564 		"/>
		<polygon fill="#FFFFFF" points="38.457,30.92 37.534,33.564 35.014,33.564 36.985,35.299 36.361,37.931 38.494,36.459 
			40.777,37.931 40.079,35.299 41.975,33.564 39.48,33.564 		"/>
		<path fill="#FFFFFF" d="M5.248,43.52l-0.699-2.632l1.896-1.734H3.95l-1.023-2.645l-0.923,2.645h-0.19
			c-0.149,0.556-0.292,1.114-0.424,1.677l0.065,0.058l-0.609,2.571c-0.003,0.02-0.008,0.039-0.011,0.059l2.13-1.47L5.248,43.52z"/>
		<polygon fill="#FFFFFF" points="17.099,36.509 16.176,39.153 13.655,39.153 15.627,40.888 15.003,43.52 17.136,42.048 
			19.419,43.52 18.721,40.888 20.617,39.153 18.122,39.153 		"/>
		<polygon fill="#FFFFFF" points="31.371,36.509 30.448,39.153 27.928,39.153 29.898,40.888 29.275,43.52 31.408,42.048 
			33.691,43.52 32.993,40.888 34.889,39.153 32.394,39.153 		"/>
		<polygon fill="#FFFFFF" points="45.942,36.509 45.019,39.153 42.499,39.153 44.47,40.888 43.846,43.52 45.979,42.048 
			48.262,43.52 47.564,40.888 49.46,39.153 46.965,39.153 		"/>
		<path fill="#FFFFFF" d="M0.831,55.297l2.133-1.473l2.283,1.473l-0.699-2.633l1.896-1.734H3.95l-1.023-2.645L2.004,50.93H0.041
			c-0.006,0.158-0.013,0.316-0.018,0.475l1.432,1.26L0.831,55.297z"/>
		<polygon fill="#FFFFFF" points="18.122,50.93 17.099,48.285 16.176,50.93 13.655,50.93 15.627,52.664 15.003,55.297 
			17.136,53.824 19.419,55.297 18.721,52.664 20.617,50.93 		"/>
		<polygon fill="#FFFFFF" points="32.394,50.93 31.371,48.285 30.448,50.93 27.928,50.93 29.898,52.664 29.275,55.297 
			31.408,53.824 33.691,55.297 32.993,52.664 34.889,50.93 		"/>
		<polygon fill="#FFFFFF" points="46.965,50.93 45.942,48.285 45.019,50.93 42.499,50.93 44.47,52.664 43.846,55.297 45.979,53.824 
			48.262,55.297 47.564,52.664 49.46,50.93 		"/>
		<polygon fill="#FFFFFF" points="11.036,45.466 10.013,42.821 9.09,45.466 6.57,45.466 8.541,47.2 7.917,49.833 10.05,48.36 
			12.333,49.833 11.635,47.2 13.531,45.466 		"/>
		<polygon fill="#FFFFFF" points="25.208,45.466 24.185,42.821 23.262,45.466 20.742,45.466 22.713,47.2 22.089,49.833 
			24.222,48.36 26.505,49.833 25.807,47.2 27.703,45.466 		"/>
		<polygon fill="#FFFFFF" points="39.48,45.466 38.457,42.821 37.534,45.466 35.014,45.466 36.985,47.2 36.361,49.833 38.494,48.36 
			40.777,49.833 40.079,47.2 41.975,45.466 		"/>
	</g>
	<g display="none">
		<path display="inline" fill="#0053A4" d="M52.925,0C23.695,0,0,23.695,0,52.925s23.695,52.925,52.925,52.925
			s52.925-23.695,52.925-52.925S82.154,0,52.925,0z M9.586,50.979h4.783l1.521-4.458l1.387,4.458h4.769l-3.916,2.722l1.292,4.227
			l-3.667-2.597L12.001,57.9l1.438-4.209L9.586,50.979z M24.642,76.688l-3.667-2.596l-3.754,2.569l1.438-4.209l-3.853-2.712h4.782
			l1.521-4.459l1.387,4.459h4.769l-3.916,2.723L24.642,76.688z M23.514,34.45l1.292,4.226l-3.667-2.596l-3.754,2.569l1.438-4.209
			l-3.853-2.713h4.783l1.521-4.457l1.387,4.457h4.769L23.514,34.45z M38.021,90.72l-3.667-2.597l-3.754,2.569l1.438-4.21
			l-3.852-2.711h4.782l1.521-4.458l1.387,4.458h4.769l-3.916,2.722L38.021,90.72z M36.892,20.909l1.292,4.226l-3.667-2.596
			l-3.754,2.569l1.438-4.209l-3.853-2.713h4.782l1.521-4.457l1.388,4.457h4.769L36.892,20.909z M57.272,95.777l-3.667-2.597
			l-3.754,2.569l1.438-4.209l-3.853-2.713h4.782l1.521-4.457l1.388,4.457h4.769l-3.915,2.723L57.272,95.777z M55.98,15.961
			l1.292,4.226l-3.667-2.596l-3.754,2.569l1.438-4.21l-3.853-2.712h4.782l1.521-4.458l1.388,4.458h4.769L55.98,15.961z
			 M70.654,18.187l1.521-4.457l1.387,4.457h4.771l-3.917,2.723l1.291,4.226l-3.667-2.596l-3.753,2.569l1.438-4.209l-3.853-2.713
			H70.654z M76.034,90.72l-3.667-2.597l-3.754,2.569l1.438-4.21l-3.853-2.711h4.782l1.522-4.458l1.387,4.458h4.769l-3.917,2.722
			L76.034,90.72z M88.283,72.464l1.291,4.225l-3.667-2.596l-3.752,2.569l1.436-4.209l-3.851-2.712h4.782l1.521-4.459l1.389,4.459
			h4.767L88.283,72.464z M97.255,50.979l-3.917,2.722l1.292,4.227l-3.666-2.597L87.212,57.9l1.435-4.209l-3.85-2.712h4.78
			l1.521-4.458l1.391,4.458H97.255z M88.119,34.45l1.293,4.226l-3.668-2.596l-3.752,2.569l1.435-4.209l-3.852-2.713h4.782
			l1.521-4.457l1.391,4.457h4.767L88.119,34.45z"/>
		<polygon display="inline" fill="#FFF100" points="53.739,8.78 52.218,13.238 47.436,13.238 51.289,15.95 49.851,20.16 
			53.604,17.591 57.272,20.187 55.98,15.961 59.896,13.238 55.127,13.238 		"/>
		<polygon display="inline" fill="#FFF100" points="55.127,88.828 53.739,84.371 52.218,88.828 47.436,88.828 51.289,91.541 
			49.851,95.75 53.604,93.181 57.272,95.777 55.98,91.551 59.896,88.828 		"/>
		<polygon display="inline" fill="#FFF100" points="15.755,55.331 19.422,57.928 18.13,53.701 22.046,50.979 17.277,50.979 
			15.89,46.521 14.369,50.979 9.586,50.979 13.438,53.691 12.001,57.9 		"/>
		<polygon display="inline" fill="#FFF100" points="21.273,27.271 19.752,31.728 14.97,31.728 18.822,34.44 17.385,38.649 
			21.139,36.08 24.806,38.676 23.514,34.45 27.429,31.728 22.661,31.728 		"/>
		<polygon display="inline" fill="#FFF100" points="34.651,13.729 33.13,18.187 28.348,18.187 32.201,20.899 30.763,25.108 
			34.517,22.539 38.184,25.135 36.892,20.909 40.808,18.187 36.039,18.187 		"/>
		<polygon display="inline" fill="#FFF100" points="68.286,25.108 72.04,22.539 75.707,25.135 74.416,20.909 78.333,18.187 
			73.562,18.187 72.175,13.729 70.654,18.187 65.871,18.187 69.724,20.899 		"/>
		<polygon display="inline" fill="#FFF100" points="85.877,27.271 84.356,31.728 79.575,31.728 83.426,34.44 81.992,38.649 
			85.744,36.08 89.412,38.676 88.119,34.45 92.035,31.728 87.268,31.728 		"/>
		<polygon display="inline" fill="#FFF100" points="22.498,69.741 21.11,65.282 19.589,69.741 14.807,69.741 18.66,72.453 
			17.222,76.662 20.976,74.093 24.642,76.688 23.351,72.464 27.266,69.741 		"/>
		<polygon display="inline" fill="#FFF100" points="35.875,83.771 34.488,79.313 32.967,83.771 28.185,83.771 32.037,86.482 
			30.599,90.692 34.354,88.123 38.021,90.72 36.729,86.493 40.645,83.771 		"/>
		<polygon display="inline" fill="#FFF100" points="73.889,83.771 72.502,79.313 70.979,83.771 66.198,83.771 70.051,86.482 
			68.613,90.692 72.367,88.123 76.034,90.72 74.741,86.493 78.658,83.771 		"/>
		<polygon display="inline" fill="#FFF100" points="86.042,65.282 84.521,69.741 79.739,69.741 83.59,72.453 82.154,76.662 
			85.906,74.093 89.574,76.688 88.283,72.464 92.198,69.741 87.431,69.741 		"/>
		<polygon display="inline" fill="#FFF100" points="89.577,50.979 84.797,50.979 88.647,53.691 87.212,57.9 90.965,55.331 
			94.631,57.928 93.339,53.701 97.255,50.979 92.489,50.979 91.098,46.521 		"/>
	</g>
	<g display="none">
		<path display="inline" fill="none" d="M44.768,105.224c2.659,0.411,5.383,0.626,8.157,0.626c2.774,0,5.498-0.215,8.157-0.626
			H44.768z"/>
		<path display="inline" fill="#FFFFFF" d="M42.519,1.025c-2.405,0.479-4.75,1.123-7.026,1.917v29.015L11.515,19.968
			c-2.199,2.76-4.13,5.742-5.749,8.91l12.159,6.08H3.13c-0.821,2.273-1.49,4.62-1.995,7.026h41.383V1.025z"/>
		<path display="inline" fill="#FFFFFF" d="M63.599,104.772c2.406-0.492,4.751-1.151,7.026-1.959V73.092L94.861,85.21
			c2.15-2.789,4.028-5.798,5.595-8.987l-12.264-6.132h14.81c0.78-2.276,1.407-4.622,1.874-7.026H63.599V104.772z"/>
		<path display="inline" fill="#FFFFFF" d="M104.715,41.984c-0.963-4.579-2.516-8.939-4.578-12.999l-11.945,5.973H72.479
			l24.052-12.026c-0.675-0.98-1.382-1.938-2.12-2.868L70.625,31.957V3.036c-2.274-0.807-4.62-1.467-7.026-1.959v40.907H104.715z"/>
		<path display="inline" fill="#FFFFFF" d="M0.974,63.064c0.906,4.67,2.426,9.121,4.473,13.265l12.478-6.238h15.712L8.977,82.421
			c0.663,0.986,1.36,1.947,2.086,2.886l24.429-12.215v29.815c2.276,0.794,4.621,1.438,7.026,1.917v-41.76H0.974z"/>
		<path display="inline" fill="#D11D23" d="M63.599,104.772V63.064h41.277c0.637-3.282,0.974-6.671,0.974-10.14
			c0-3.751-0.393-7.41-1.135-10.94H63.599V1.077C60.151,0.371,56.581,0,52.925,0c-3.562,0-7.042,0.354-10.406,1.025v40.959H1.135
			C0.393,45.515,0,49.174,0,52.925c0,3.469,0.337,6.857,0.974,10.14h41.544v41.76c0.745,0.148,1.494,0.282,2.249,0.399h16.314
			C61.927,105.093,62.767,104.943,63.599,104.772z"/>
		<path display="inline" fill="#D11D23" d="M100.456,76.223c0.971-1.979,1.824-4.024,2.546-6.132h-14.81L100.456,76.223z"/>
		<path display="inline" fill="#D11D23" d="M17.925,70.091L5.447,76.329c1.044,2.114,2.223,4.149,3.529,6.092l24.661-12.33H17.925z"
			/>
		<path display="inline" fill="#D11D23" d="M5.766,28.878c-1,1.959-1.881,3.989-2.636,6.08h14.795L5.766,28.878z"/>
		<path display="inline" fill="#D11D23" d="M88.192,34.958l11.945-5.973c-1.069-2.104-2.275-4.124-3.605-6.054L72.479,34.958H88.192
			z"/>
		<path display="inline" fill="#00305C" d="M35.492,2.942c-9.527,3.322-17.813,9.29-23.977,17.025l23.977,11.989V2.942z"/>
		<path display="inline" fill="#00305C" d="M11.063,85.307c6.208,8.015,14.667,14.196,24.429,17.601V73.092L11.063,85.307z"/>
		<path display="inline" fill="#00305C" d="M94.412,20.063C88.297,12.354,80.079,6.391,70.625,3.036v28.921L94.412,20.063z"/>
		<path display="inline" fill="#00305C" d="M70.625,102.813c9.688-3.438,18.078-9.616,24.236-17.604L70.625,73.092V102.813z"/>
	</g>
</g>
</svg>
